<?xml version="1.0" encoding="UTF-8"?>
<svg version="1.1" xmlns="http://www.w3.org/2000/svg" width="912" height="472">
<path d="M0 0 C285.78 0 571.56 0 866 0 C866 106.26 866 212.52 866 322 C580.22 322 294.44 322 0 322 C0 215.74 0 109.48 0 0 Z M16 16 C16 111.7 16 207.4 16 306 C291.22 306 566.44 306 850 306 C850 210.3 850 114.6 850 16 C574.78 16 299.56 16 16 16 Z " fill="#1E1E1E" transform="translate(7,7)"/>
<path d="M0 0 C19.8 0 39.6 0 60 0 C60 2.97 60 5.94 60 9 C57.13255824 11.86744176 52.03852125 10.6328617 48 11 C48 32.12 48 53.24 48 75 C72.75 75 97.5 75 123 75 C123 53.88 123 32.76 123 11 C119.04 10.67 115.08 10.34 111 10 C110.505 9.505 110.505 9.505 110 9 C110 6.03 110 3.06 110 0 C129.8 0 149.6 0 170 0 C170 3.3 170 6.6 170 10 C164.06 10.495 164.06 10.495 158 11 C158 61.16 158 111.32 158 163 C161.96 163.33 165.92 163.66 170 164 C170 167.63 170 171.26 170 175 C150.2 175 130.4 175 110 175 C110 165 110 165 111 164 C114.96 163.67 118.92 163.34 123 163 C123 140.23 123 117.46 123 94 C98.25 94 73.5 94 48 94 C48 116.77 48 139.54 48 163 C51.63 163.33 55.26 163.66 59 164 C61.60341656 166.60341656 60 171.31821299 60 175 C40.2 175 20.4 175 0 175 C0 165 0 165 1 164 C4.63 163.67 8.26 163.34 12 163 C12 112.84 12 62.68 12 11 C8.37 10.67 4.74 10.34 1 10 C0.67 9.67 0.34 9.34 0 9 C0 6.03 0 3.06 0 0 Z " fill="#1E1E1E" transform="translate(81,81)"/>
<path d="M0 0 C7.61935162 7.25141512 10.44345323 17.79265171 10.88656616 28.10534668 C11.00849758 33.24238908 10.96313564 38.3778463 10.91796875 43.515625 C10.91236229 45.4041917 10.90809717 47.2927628 10.90510559 49.18133545 C10.89373939 54.11326486 10.86434453 59.04492241 10.83099365 63.97674561 C10.80011388 69.02482426 10.78656226 74.07294754 10.77148438 79.12109375 C10.73946571 88.99751422 10.6883708 98.87373436 10.625 108.75 C11.33527344 108.81058594 12.04554688 108.87117188 12.77734375 108.93359375 C14.15599609 109.05927734 14.15599609 109.05927734 15.5625 109.1875 C16.47902344 109.26871094 17.39554688 109.34992188 18.33984375 109.43359375 C20.625 109.75 20.625 109.75 21.625 110.75 C21.625 113.72 21.625 116.69 21.625 119.75 C3.475 119.75 -14.675 119.75 -33.375 119.75 C-33.375 110.75 -33.375 110.75 -32.375 109.75 C-30.69316052 109.51712992 -29.0037584 109.33735834 -27.3125 109.1875 C-26.39339844 109.10371094 -25.47429687 109.01992187 -24.52734375 108.93359375 C-23.81707031 108.87300781 -23.10679687 108.81242187 -22.375 108.75 C-22.45973927 99.29144028 -22.55474977 89.83305364 -22.66252708 80.3747282 C-22.71226826 75.98186529 -22.75859844 71.58902388 -22.796875 67.19604492 C-22.83401026 62.94895104 -22.88044283 58.70204742 -22.93306351 54.45511818 C-22.95145865 52.84262271 -22.96662019 51.23008669 -22.97834396 49.61752892 C-22.69405542 32.25098173 -22.69405542 32.25098173 -29.375 16.75 C-34.37482749 13.02463834 -39.10185889 11.35140404 -45.375 11.75 C-53.81978835 13.55127229 -60.56927837 16.84713918 -68.375 20.75 C-68.705 49.79 -69.035 78.83 -69.375 108.75 C-66.075 109.08 -62.775 109.41 -59.375 109.75 C-58.375 110.75 -58.375 110.75 -58.375 119.75 C-76.855 119.75 -95.335 119.75 -114.375 119.75 C-114.375 110.75 -114.375 110.75 -113.375 109.75 C-108.425 109.255 -108.425 109.255 -103.375 108.75 C-103.375 74.76 -103.375 40.77 -103.375 5.75 C-107.005 5.42 -110.635 5.09 -114.375 4.75 C-114.375 1.45 -114.375 -1.85 -114.375 -5.25 C-99.525 -5.25 -84.675 -5.25 -69.375 -5.25 C-68.88 2.175 -68.88 2.175 -68.375 9.75 C-66.663125 8.38875 -64.95125 7.0275 -63.1875 5.625 C-45.70442195 -7.78970409 -18.76718197 -15.13816889 0 0 Z " fill="#1E1E1E" transform="translate(778.375,136.25)"/>
<path d="M0 0 C13.23517186 12.87806773 18.22900254 30.02480279 18.72094727 48.03710938 C18.91900395 66.99186791 15.05384863 83.90971065 1.69262695 98.09082031 C-11.03768636 110.90425471 -28.30057759 116.42724431 -46.046875 116.58300781 C-47.14386719 116.5775293 -48.24085938 116.57205078 -49.37109375 116.56640625 C-50.51578125 116.5622168 -51.66046875 116.55802734 -52.83984375 116.55371094 C-61.45436078 116.43907835 -69.38296377 115.71216975 -77.68359375 113.25390625 C-78.5859375 112.98707031 -79.48828125 112.72023437 -80.41796875 112.4453125 C-93.16081233 107.99323206 -101.86966464 99.17790016 -108.1796875 87.48046875 C-116.99038645 68.39497844 -117.2035349 44.69628416 -110.58203125 24.97265625 C-104.45357185 9.31543094 -93.9248454 -2.43730939 -78.68359375 -9.74609375 C-53.7520182 -20.58147876 -20.9312885 -17.70592141 0 0 Z M-68.37890625 5.140625 C-80.97354716 25.5409266 -80.79388159 56.12317367 -75.58984375 78.859375 C-73.16754034 87.93257184 -69.71674302 97.17166319 -61.59375 102.66796875 C-54.6200034 106.27821373 -47.93611663 107.35256785 -40.24609375 105.19140625 C-32.73704739 102.40744008 -28.1502442 97.6725955 -24.37109375 90.69140625 C-14.62476857 69.15944329 -14.76972375 38.33072426 -22.48828125 16.08984375 C-26.23784591 7.1938178 -30.43733939 1.23707049 -38.87109375 -3.55859375 C-49.9879621 -7.02122488 -61.16237754 -4.37948491 -68.37890625 5.140625 Z " fill="#1E1E1E" transform="translate(633.68359375,142.74609375)"/>
<path d="M0 0 C14.85 0 29.7 0 45 0 C45.33 54.12 45.66 108.24 46 164 C49.3 164.66 52.6 165.32 56 166 C56 168.97 56 171.94 56 175 C37.52 175 19.04 175 0 175 C0 172.03 0 169.06 0 166 C4.95 165.01 4.95 165.01 10 164 C10.495 87.77 10.495 87.77 11 10 C7.7 9.67 4.4 9.34 1 9 C0.67 8.67 0.34 8.34 0 8 C0 5.36 0 2.72 0 0 Z " fill="#1E1E1E" transform="translate(354,81)"/>
<path d="M0 0 C0 11.55 0 23.1 0 35 C9.9 35 19.8 35 30 35 C30 38.96 30 42.92 30 47 C20.1 47 10.2 47 0 47 C0.08574576 57.25812065 0.17962124 67.51608058 0.28752708 77.77399254 C0.33732128 82.53793847 0.3836519 87.30186403 0.421875 92.06591797 C0.45894214 96.66961141 0.50535822 101.27312701 0.55806351 105.87666702 C0.57649424 107.62675459 0.59164325 109.37688011 0.60334396 111.1270256 C-0.01002847 126.34774118 -0.01002847 126.34774118 5.25 140 C9.93630407 143.40822114 14.33269517 144.25430211 20.0546875 144.1953125 C21.71757812 144.18564453 21.71757812 144.18564453 23.4140625 144.17578125 C24.55617188 144.15902344 25.69828125 144.14226562 26.875 144.125 C28.0403125 144.11597656 29.205625 144.10695312 30.40625 144.09765625 C33.27104577 144.07417432 36.13541535 144.04133141 39 144 C39 146.97 39 149.94 39 153 C22.47133105 160.71337884 -0.7733245 165.14207785 -18.5 159.3125 C-25.62388516 156.08255523 -29.13177102 151.07215284 -32 144 C-32.79311385 141.26203461 -33.12410145 138.83507543 -33.12025452 135.98834229 C-33.12162918 135.2003273 -33.12300385 134.41231232 -33.12442017 133.60041809 C-33.12082489 132.74518051 -33.11722961 131.88994293 -33.11352539 131.00878906 C-33.11367142 130.10112289 -33.11381744 129.19345673 -33.1139679 128.25828552 C-33.11327171 125.26070763 -33.10549302 122.26319202 -33.09765625 119.265625 C-33.09579103 117.1862593 -33.09436762 115.10689315 -33.09336853 113.02752686 C-33.08955157 107.55636378 -33.07972826 102.08522728 -33.06866455 96.61407471 C-33.05843281 91.03048054 -33.05386713 85.44688209 -33.04882812 79.86328125 C-33.03810528 68.90884062 -33.02051509 57.95442668 -33 47 C-40.59 47 -48.18 47 -56 47 C-56 43.04 -56 39.08 -56 35 C-48.08 35 -40.16 35 -32 35 C-32 26.42 -32 17.84 -32 9 C-25.92337668 6.72126626 -19.94767268 4.67456041 -13.75 2.8125 C-12.86570312 2.53986328 -11.98140625 2.26722656 -11.0703125 1.98632812 C-10.21695313 1.72916016 -9.36359375 1.47199219 -8.484375 1.20703125 C-7.71834961 0.9747583 -6.95232422 0.74248535 -6.16308594 0.50317383 C-4 0 -4 0 0 0 Z " fill="#1E1E1E" transform="translate(476,96)"/>
<path d="M0 0 C14.52 0 29.04 0 44 0 C44 37.62 44 75.24 44 114 C47.63 114.33 51.26 114.66 55 115 C56 116 56 116 56 125 C37.52 125 19.04 125 0 125 C0 116 0 116 1 115 C5.95 114.505 5.95 114.505 11 114 C11 79.68 11 45.36 11 10 C7.37 9.67 3.74 9.34 0 9 C0 6.03 0 3.06 0 0 Z " fill="#1E1E1E" transform="translate(276,131)"/>
<path d="M0 0 C8.16546621 7.23268009 12.7021839 16.22540876 13.9375 27.0625 C14.41465027 38.52901744 11.47135309 48.99103012 4.33203125 58.13671875 C-4.15230953 67.08701875 -14.29661595 71.04309961 -26.5625 71.375 C-38.18253602 71.04535359 -48.72633701 66.85372843 -56.8125 58.3125 C-65.30224061 47.89600975 -67.1722827 36.00051932 -66 23 C-63.52383275 11.48228488 -57.36364059 3.2178675 -47.7421875 -3.33984375 C-32.75268246 -12.41468654 -13.73008032 -10.55803816 0 0 Z M-41.9375 16.0078125 C-47.1143506 22.75265151 -47.74754833 28.59542095 -47 37 C-45.01790585 44.20001672 -39.93393727 48.66090216 -33.6875 52.375 C-26.96819831 53.9376283 -21.7290071 53.8192108 -15.625 50.375 C-10.48111774 46.93230764 -8.00186246 43.48080229 -5.6875 37.75 C-4.51049718 31.32998461 -4.79825561 25.51756695 -8.0625 19.75 C-11.67496882 14.57282812 -16.68364813 10.17719584 -23 9 C-30.29286567 8.12485612 -36.84888508 10.7345301 -41.9375 16.0078125 Z " fill="#1E1E1E" transform="translate(154,396)"/>
<path d="M0 0 C1.86503667 -0.01646048 3.73001289 -0.04361739 5.59472656 -0.08203125 C26.93900697 -0.51937508 26.93900697 -0.51937508 35.26220703 7.06054688 C40.50746623 12.44952306 42.51309901 18.43108273 42.7590332 25.85009766 C42.49199774 33.90566754 40.06119524 39.08707325 34.78637695 45.10009766 C33.3840332 46.35009766 33.3840332 46.35009766 31.3840332 46.35009766 C33.17511753 50.10037607 34.96700171 53.85027176 36.7590332 57.60009766 C37.26692383 58.66357422 37.77481445 59.72705078 38.2980957 60.82275391 C39.03286133 62.35996094 39.03286133 62.35996094 39.7824707 63.92822266 C40.23283691 64.87084961 40.68320313 65.81347656 41.1472168 66.78466797 C41.91327806 68.37364779 42.70798681 69.9495683 43.54663086 71.50146484 C44.3840332 73.35009766 44.3840332 73.35009766 44.3840332 76.35009766 C41.10258802 77.99082025 37.48613324 77.49284199 33.8840332 77.47509766 C33.09899414 77.47896484 32.31395508 77.48283203 31.50512695 77.48681641 C25.63734108 77.47675159 25.63734108 77.47675159 23.3840332 76.35009766 C22.23901367 74.2487793 22.23901367 74.2487793 21.0012207 71.51025391 C20.55649414 70.52992188 20.11176758 69.54958984 19.65356445 68.53955078 C19.19336914 67.50765625 18.73317383 66.47576172 18.2590332 65.41259766 C17.79110352 64.38457031 17.32317383 63.35654297 16.84106445 62.29736328 C13.3840332 54.62235075 13.3840332 54.62235075 13.3840332 52.35009766 C9.4240332 52.35009766 5.4640332 52.35009766 1.3840332 52.35009766 C1.3840332 60.27009766 1.3840332 68.19009766 1.3840332 76.35009766 C-1.65026357 77.86724604 -4.79198346 77.49373682 -8.1159668 77.47509766 C-8.80561523 77.47896484 -9.49526367 77.48283203 -10.20581055 77.48681641 C-15.36263387 77.47676412 -15.36263387 77.47676412 -17.6159668 76.35009766 C-17.63909125 66.58858777 -17.65688241 56.82708436 -17.66777897 47.06555271 C-17.67300757 42.53335671 -17.6801048 38.00117939 -17.69140625 33.46899414 C-17.70223594 29.09886935 -17.7082438 24.72876258 -17.71084404 20.35862541 C-17.71269814 18.68758803 -17.71631847 17.01655168 -17.72169685 15.34552193 C-17.72890838 13.01312214 -17.72995769 10.68079773 -17.72949219 8.34838867 C-17.73308746 7.65067856 -17.73668274 6.95296844 -17.74038696 6.2341156 C-17.72023117 -3.03887928 -7.42282338 0.04793515 0 0 Z M1.3840332 16.35009766 C1.3840332 22.95009766 1.3840332 29.55009766 1.3840332 36.35009766 C3.7559082 36.41197266 6.1277832 36.47384766 8.5715332 36.53759766 C9.30911865 36.56490967 10.0467041 36.59222168 10.80664062 36.62036133 C15.22241067 36.67581934 17.87549466 36.02732203 21.3840332 33.35009766 C23.95023017 29.9285017 23.89387374 26.50165633 23.3840332 22.35009766 C21.211291 19.71993605 19.43729532 17.87672872 16.3840332 16.35009766 C13.83015828 16.2783596 11.31126559 16.25722034 8.7590332 16.28759766 C6.3252832 16.30822266 3.8915332 16.32884766 1.3840332 16.35009766 Z " fill="#1E1E1E" transform="translate(201.615966796875,388.64990234375)"/>
<path d="M0 0 C0.74886475 0.00523682 1.49772949 0.01047363 2.26928711 0.01586914 C3.36188843 0.01961548 3.36188843 0.01961548 4.4765625 0.0234375 C5.40718506 0.0325415 6.33780762 0.04164551 7.29663086 0.05102539 C11.72069336 0.08196289 11.72069336 0.08196289 16.23413086 0.11352539 C16.23413086 9.35352539 16.23413086 18.59352539 16.23413086 28.11352539 C26.13413086 28.11352539 36.03413086 28.11352539 46.23413086 28.11352539 C46.23413086 18.87352539 46.23413086 9.63352539 46.23413086 0.11352539 C52.17413086 0.11352539 58.11413086 0.11352539 64.23413086 0.11352539 C64.25668262 10.00542322 64.27504638 19.8973041 64.28594303 29.78922176 C64.29117168 34.38195179 64.29826898 38.97466339 64.30957031 43.56738281 C64.32039986 47.99586227 64.32640784 52.42432395 64.3290081 56.85281563 C64.33086223 58.54618167 64.33448261 60.23954668 64.33986092 61.9329052 C64.34707226 64.29643771 64.34812176 66.65989584 64.34765625 69.0234375 C64.35125153 69.73049835 64.3548468 70.4375592 64.35855103 71.16604614 C64.34818302 75.99947323 64.34818302 75.99947323 63.23413086 77.11352539 C60.55681706 77.21333753 57.91108911 77.25232414 55.23413086 77.23852539 C54.1087793 77.24432617 54.1087793 77.24432617 52.96069336 77.25024414 C47.36074139 77.24013592 47.36074139 77.24013592 46.23413086 76.11352539 C46.14622111 73.82201122 46.12719048 71.52780015 46.13647461 69.23461914 C46.13788956 68.5479567 46.1393045 67.86129425 46.14076233 67.15382385 C46.14637607 64.95284738 46.15893079 62.7519713 46.17163086 60.55102539 C46.17664409 59.06209456 46.18120731 57.57316215 46.18530273 56.08422852 C46.19550065 52.42725734 46.21507307 48.77050422 46.23413086 45.11352539 C36.33413086 45.11352539 26.43413086 45.11352539 16.23413086 45.11352539 C16.24573242 47.33973633 16.25733398 49.56594727 16.26928711 51.85961914 C16.27707808 54.00748553 16.28315461 56.15535036 16.2890625 58.30322266 C16.29410207 59.79997457 16.30093373 61.29672155 16.30957031 62.79345703 C16.32165245 64.94052346 16.32736277 67.08752501 16.33178711 69.23461914 C16.33964233 71.17485962 16.33964233 71.17485962 16.34765625 73.15429688 C16.23413086 76.11352539 16.23413086 76.11352539 15.23413086 77.11352539 C12.57590429 77.24010761 9.95525662 77.29872753 7.29663086 77.30102539 C6.55477539 77.31327148 5.81291992 77.32551758 5.04858398 77.33813477 C3.10899456 77.34341017 1.16989376 77.23541441 -0.76586914 77.11352539 C-2.76586914 75.11352539 -2.76586914 75.11352539 -3.0131073 72.07041931 C-3.01168228 70.76327469 -3.01025726 69.45613007 -3.00878906 68.109375 C-3.01068741 67.38892502 -3.01258575 66.66847504 -3.01454163 65.92619324 C-3.01825339 63.53930866 -3.0075406 61.15272678 -2.99633789 58.76586914 C-2.99514631 57.11202531 -2.99469288 55.45818079 -2.99494934 53.80433655 C-2.99338384 50.33663707 -2.98508845 46.86904073 -2.97167969 43.40136719 C-2.95467648 38.94662928 -2.95086568 34.49200468 -2.95162487 30.03723812 C-2.95135354 26.62214569 -2.94587861 23.20707824 -2.93862343 19.79199409 C-2.9354317 18.14887239 -2.93346818 16.50574785 -2.93272972 14.86262321 C-2.93057222 12.57112634 -2.92184129 10.279752 -2.91113281 7.98828125 C-2.90732101 6.68193222 -2.90350922 5.37558319 -2.89958191 4.02964783 C-2.72283718 0.1750476 -2.72283718 0.1750476 0 0 Z " fill="#1E1E1E" transform="translate(378.765869140625,388.886474609375)"/>
<path d="M0 0 C18.15 0 36.3 0 55 0 C55 5.28 55 10.56 55 16 C54 17 54 17 50.58178711 17.11352539 C49.06363012 17.11336628 47.54546771 17.10767226 46.02734375 17.09765625 C45.22970108 17.0962413 44.43205841 17.09482635 43.61024475 17.09336853 C41.05262565 17.08775316 38.49509282 17.07519812 35.9375 17.0625 C34.20768355 17.05748698 32.47786574 17.05292373 30.74804688 17.04882812 C26.49866447 17.03777875 22.24934688 17.02050386 18 17 C18 20.96 18 24.92 18 29 C18.84296631 28.99476318 19.68593262 28.98952637 20.55444336 28.98413086 C23.67227936 28.96712174 26.79009177 28.95456594 29.90795898 28.94506836 C31.25920386 28.94002943 32.61044326 28.93319823 33.96166992 28.92456055 C35.90020434 28.91247581 37.838778 28.90730172 39.77734375 28.90234375 C41.52905884 28.89448853 41.52905884 28.89448853 43.31616211 28.88647461 C46 29 46 29 47 30 C47.07320163 32.5327765 47.09227569 35.03103918 47.0625 37.5625 C47.041875 40.016875 47.02125 42.47125 47 45 C37.43 45 27.86 45 18 45 C18 49.95 18 54.9 18 60 C30.54 60 43.08 60 56 60 C56 65.28 56 70.56 56 76 C54.31987658 77.68012342 52.24912808 77.12747339 49.9453125 77.12939453 C48.32858643 77.13412277 48.32858643 77.13412277 46.67919922 77.13894653 C45.50631348 77.1369223 44.33342773 77.13489807 43.125 77.1328125 C41.9302002 77.13376923 40.73540039 77.13472595 39.50439453 77.13571167 C36.9723302 77.13639371 34.44026412 77.13453778 31.90820312 77.13037109 C28.0168874 77.12502321 24.12568711 77.13031533 20.234375 77.13671875 C17.78124974 77.13605797 15.32812456 77.13477682 12.875 77.1328125 C11.70211426 77.13483673 10.52922852 77.13686096 9.32080078 77.13894653 C8.2429834 77.13579437 7.16516602 77.13264221 6.0546875 77.12939453 C5.10062012 77.12859894 4.14655273 77.12780334 3.16357422 77.12698364 C1 77 1 77 0 76 C-0.09494733 73.62699131 -0.12559319 71.28321297 -0.11352539 68.90991211 C-0.11367142 68.16849472 -0.11381744 67.42707733 -0.1139679 66.66319275 C-0.11326865 64.20121379 -0.10547574 61.73930957 -0.09765625 59.27734375 C-0.09579211 57.57483461 -0.09436819 55.87232493 -0.09336853 54.16981506 C-0.08954302 49.68006927 -0.07971247 45.19035562 -0.06866455 40.70062256 C-0.05665668 35.31836359 -0.05204835 29.9360939 -0.04621124 24.55382538 C-0.03650072 16.36919454 -0.01734441 8.18463428 0 0 Z " fill="#1E1E1E" transform="translate(469,389)"/>
<path d="M0 0 C1.58206057 0.00667536 3.16410534 0.0186375 4.74609375 0.03515625 C5.55240234 0.03966797 6.35871094 0.04417969 7.18945312 0.04882812 C9.18753131 0.06065107 11.18557158 0.07858711 13.18359375 0.09765625 C13.40164169 0.66045792 13.61968964 1.22325958 13.84434509 1.80311584 C16.16473173 7.7920179 18.4856661 13.78070749 20.80688477 19.76928711 C21.6670444 21.98863638 22.5270755 24.20803547 23.38696289 26.42749023 C24.22237941 28.58373498 25.05812439 30.7398525 25.89419556 32.89584351 C26.73135195 35.05639101 27.56694031 37.21754673 28.40097046 39.37930298 C30.508044 44.83036992 32.64828472 50.26410988 34.85595703 55.67529297 C35.27945938 56.72389999 35.70296173 57.77250702 36.13929749 58.85289001 C36.94327186 60.83947104 37.7574043 62.82198135 38.58323669 64.79957581 C38.94063431 65.68741257 39.29803192 66.57524933 39.66625977 67.48999023 C39.98450211 68.26229477 40.30274445 69.0345993 40.63063049 69.83030701 C41.29560705 72.55695128 40.90555797 74.41287091 40.18359375 77.09765625 C37.55852573 77.12456469 34.93373202 77.14445029 32.30859375 77.16015625 C31.56222656 77.16853516 30.81585937 77.17691406 30.046875 77.18554688 C24.41015625 77.2109375 24.41015625 77.2109375 22.18359375 76.09765625 C20.86359375 72.46765625 19.54359375 68.83765625 18.18359375 65.09765625 C4.32359375 64.60265625 4.32359375 64.60265625 -9.81640625 64.09765625 C-10.80640625 67.39765625 -11.79640625 70.69765625 -12.81640625 74.09765625 C-13.47640625 75.08765625 -14.13640625 76.07765625 -14.81640625 77.09765625 C-17.60493515 77.31873412 -20.16293806 77.3787316 -22.94140625 77.28515625 C-24.07255859 77.26485352 -24.07255859 77.26485352 -25.2265625 77.24414062 C-27.09014752 77.2087561 -28.95336603 77.15494792 -30.81640625 77.09765625 C-31.99658203 75.61450195 -31.99658203 75.61450195 -32.81640625 73.09765625 C-31.99666674 70.19239738 -31.08244911 67.60135847 -29.93359375 64.828125 C-29.44484016 63.59598015 -29.44484016 63.59598015 -28.94621277 62.33894348 C-27.87542409 59.64844554 -26.78354806 56.96704874 -25.69140625 54.28515625 C-24.95211765 52.4387817 -24.21441527 50.59177126 -23.47827148 48.74414062 C-21.98568895 45.00070612 -20.4863804 41.26006974 -18.98291016 37.52099609 C-16.98471912 32.53706331 -15.03415244 27.53612826 -13.109375 22.5234375 C-12.83015198 21.79650192 -12.55092896 21.06956635 -12.26324463 20.32060242 C-11.21001678 17.57532578 -10.15865323 14.82934057 -9.10858154 12.08285522 C-8.40029675 10.23270619 -7.68853177 8.38389056 -6.9765625 6.53515625 C-6.58090088 5.50261719 -6.18523926 4.47007812 -5.77758789 3.40625 C-4.23309308 -0.30336211 -4.39664835 0.1125038 0 0 Z M4.18359375 25.09765625 C-1.44129115 36.19019048 -1.44129115 36.19019048 -3.81640625 48.09765625 C1.79359375 48.09765625 7.40359375 48.09765625 13.18359375 48.09765625 C10.54359375 40.50765625 7.90359375 32.91765625 5.18359375 25.09765625 C4.85359375 25.09765625 4.52359375 25.09765625 4.18359375 25.09765625 Z " fill="#1E1E1E" transform="translate(747.81640625,388.90234375)"/>
<path d="M0 0 C11.62600153 -0.5199464 20.75694745 3.46907426 30.05859375 10.15234375 C29.53174571 14.22473673 28.42810226 16.36833012 25.68359375 19.40234375 C25.07773437 20.088125 24.471875 20.77390625 23.84765625 21.48046875 C22.05859375 23.15234375 22.05859375 23.15234375 19.05859375 24.15234375 C17.11328125 23.19140625 17.11328125 23.19140625 14.93359375 21.77734375 C9.37479987 18.52716948 4.38308132 17.39048202 -1.94140625 18.83984375 C-4.06235696 19.99742636 -4.06235696 19.99742636 -4.94140625 22.08984375 C-5.15791471 24.21030139 -5.15791471 24.21030139 -3.71337891 25.66674805 C-1.72810117 27.33117558 -0.01742652 28.09173845 2.41015625 28.984375 C3.25771484 29.30486816 4.10527344 29.62536133 4.97851562 29.95556641 C6.3175293 30.45515869 6.3175293 30.45515869 7.68359375 30.96484375 C26.39884998 38.22116818 26.39884998 38.22116818 31.05859375 47.15234375 C32.99099496 53.55015857 32.73211786 60.09744049 30.08984375 66.23828125 C26.34870253 73.18206609 21.52178287 76.73816431 14.05859375 79.15234375 C3.07022803 81.78037985 -8.66277916 80.52180171 -18.43359375 74.65625 C-20.37212978 73.23252665 -22.17547538 71.78343753 -23.94140625 70.15234375 C-24.5034375 69.64316406 -25.06546875 69.13398438 -25.64453125 68.609375 C-26.94140625 67.15234375 -26.94140625 67.15234375 -27.06640625 64.90234375 C-25.19186865 60.32014074 -21.52533095 56.29007967 -16.9453125 54.2734375 C-14.13576994 54.10366007 -13.27224251 55.12906465 -11.19140625 56.96484375 C-5.95987185 61.13069522 -1.29506796 62.52543505 5.37109375 61.96484375 C8.90056949 61.38100349 8.90056949 61.38100349 11.12109375 59.96484375 C12.60746626 57.09119022 11.945452 55.18633251 11.05859375 52.15234375 C8.74465169 50.5092434 8.74465169 50.5092434 5.74609375 49.58984375 C4.66199219 49.18507813 3.57789063 48.7803125 2.4609375 48.36328125 C1.33816406 47.96367187 0.21539063 47.5640625 -0.94140625 47.15234375 C-17.67607292 40.78701042 -17.67607292 40.78701042 -22.87890625 33.40234375 C-25.47923348 25.44840165 -25.54801291 18.77470994 -21.94140625 11.15234375 C-18.81403946 5.64817821 -13.61143175 3.47642119 -7.94140625 1.15234375 C-5.21843443 0.42992265 -2.78770454 0.21875348 0 0 Z " fill="#1E1E1E" transform="translate(605.94140625,386.84765625)"/>
<path d="M0 0 C0.9215538 0.00222061 1.8431076 0.00444122 2.79258728 0.00672913 C3.83359085 0.00680466 4.87459442 0.00688019 5.94714355 0.00695801 C7.07941879 0.01211929 8.21169403 0.01728058 9.37828064 0.02259827 C10.53106003 0.02401321 11.68383942 0.02542816 12.87155151 0.02688599 C16.57043503 0.03250446 20.26925903 0.0450601 23.96812439 0.05775452 C26.46877456 0.06276714 28.96942567 0.06733045 31.47007751 0.07142639 C37.61528027 0.0824799 43.76044808 0.099236 49.90562439 0.12025452 C49.93247118 2.76615466 49.95238796 5.41178547 49.96812439 8.05775452 C49.9765033 8.81250061 49.9848822 9.5672467 49.99351501 10.34486389 C50.0021488 12.27019765 49.95786772 14.19561033 49.90562439 16.12025452 C48.90562439 17.12025452 48.90562439 17.12025452 45.76280212 17.23377991 C44.37159742 17.23362084 42.98038678 17.22792958 41.58921814 17.21791077 C40.8581636 17.21649582 40.12710907 17.21508087 39.37390137 17.21362305 C37.03026807 17.2080086 34.686729 17.19545373 32.34312439 17.18275452 C30.75783931 17.17774137 29.17255273 17.17317815 27.58726501 17.16908264 C23.69331896 17.15888373 19.79957762 17.13931138 15.90562439 17.12025452 C15.90562439 22.73025452 15.90562439 28.34025452 15.90562439 34.12025452 C24.48562439 34.12025452 33.06562439 34.12025452 41.90562439 34.12025452 C41.92624939 36.57462952 41.94687439 39.02900452 41.96812439 41.55775452 C41.97722839 42.33175598 41.9863324 43.10575745 41.99571228 43.9032135 C42.00287352 45.64247168 41.95587141 47.38170755 41.90562439 49.12025452 C40.90562439 50.12025452 40.90562439 50.12025452 38.49717712 50.23377991 C37.45505066 50.22854309 36.41292419 50.22330627 35.33921814 50.21791077 C34.21451111 50.21468811 33.08980408 50.21146545 31.93101501 50.20814514 C30.74701111 50.19976624 29.5630072 50.19138733 28.34312439 50.18275452 C27.1552533 50.1782428 25.9673822 50.17373108 24.74351501 50.16908264 C21.79750213 50.15725126 18.85158758 50.14076738 15.90562439 50.12025452 C15.91347961 51.29382507 15.91347961 51.29382507 15.92149353 52.49110413 C15.94219545 56.01331285 15.95526277 59.53550882 15.96812439 63.05775452 C15.9765033 64.28945374 15.9848822 65.52115295 15.99351501 66.79017639 C15.998349 68.54491272 15.998349 68.54491272 16.00328064 70.33509827 C16.01113586 71.96112976 16.01113586 71.96112976 16.01914978 73.62001038 C15.90562439 76.12025452 15.90562439 76.12025452 14.90562439 77.12025452 C12.24739782 77.24683673 9.62675015 77.30545666 6.96812439 77.30775452 C6.22626892 77.32000061 5.48441345 77.3322467 4.72007751 77.34486389 C2.7804881 77.35013929 0.84138729 77.24214354 -1.09437561 77.12025452 C-3.09437561 75.12025452 -3.09437561 75.12025452 -3.34161377 72.07714844 C-3.34018875 70.77000381 -3.33876373 69.46285919 -3.33729553 68.11610413 C-3.33919388 67.39565414 -3.34109222 66.67520416 -3.3430481 65.93292236 C-3.34675986 63.54603779 -3.33604707 61.1594559 -3.32484436 58.77259827 C-3.32365278 57.11875443 -3.32319935 55.46490992 -3.32345581 53.81106567 C-3.32189031 50.34336619 -3.31359492 46.87576985 -3.30018616 43.40809631 C-3.28318295 38.9533584 -3.27937215 34.4987338 -3.28013134 30.04396725 C-3.27986001 26.62887481 -3.27438508 23.21380737 -3.2671299 19.79872322 C-3.26393817 18.15560152 -3.26197465 16.51247698 -3.26123619 14.86935234 C-3.25907869 12.57785546 -3.25034776 10.28648112 -3.23963928 7.99501038 C-3.23582748 6.68866135 -3.23201569 5.38231232 -3.22808838 4.03637695 C-3.05104136 0.17518419 -3.05104136 0.17518419 0 0 Z " fill="#1E1E1E" transform="translate(26.094375610351563,388.87974548339844)"/>
<path d="M0 0 C6.6 0 13.2 0 20 0 C20.92683594 1.86527344 21.85367188 3.73054688 22.80859375 5.65234375 C23.70534102 7.45278983 24.60210222 9.25322901 25.49926758 11.0534668 C26.12368578 12.30734013 26.74738637 13.56157109 27.37036133 14.81616211 C28.26456165 16.61665615 29.16153581 18.41577175 30.05859375 20.21484375 C30.59798584 21.29886475 31.13737793 22.38288574 31.69311523 23.49975586 C32.77670447 25.87640584 32.77670447 25.87640584 34 27 C34.38857178 26.21761963 34.77714355 25.43523926 35.17749023 24.62915039 C36.6164846 21.73414617 38.05726207 18.84003859 39.49926758 15.9465332 C40.12368578 14.69265987 40.74738637 13.43842891 41.37036133 12.18383789 C42.26456165 10.38334385 43.16153581 8.58422825 44.05859375 6.78515625 C44.86768188 5.15912476 44.86768188 5.15912476 45.69311523 3.50024414 C47 1 47 1 48 0 C49.4887186 -0.08669432 50.981445 -0.10703494 52.47265625 -0.09765625 C53.37177734 -0.09443359 54.27089844 -0.09121094 55.19726562 -0.08789062 C56.61555664 -0.07532227 56.61555664 -0.07532227 58.0625 -0.0625 C59.01189453 -0.05798828 59.96128906 -0.05347656 60.93945312 -0.04882812 C63.29303065 -0.0370011 65.64648477 -0.02052025 68 0 C67.58001763 6.12974274 64.6806391 10.53013359 61.625 15.6875 C61.09350342 16.61957275 60.56200684 17.55164551 60.0144043 18.51196289 C57.44190808 22.99699955 54.81182796 27.34753452 51.79296875 31.546875 C42.54241796 44.88947258 42.56738368 57.72623795 43.03076172 73.43408203 C43 76 43 76 42 77 C39.34177343 77.12658222 36.72112576 77.18520214 34.0625 77.1875 C33.32064453 77.19974609 32.57878906 77.21199219 31.81445312 77.22460938 C29.87486371 77.22988478 27.9357629 77.12188902 26 77 C24 75 24 75 23.90332031 72.39990234 C23.96100586 71.30629395 24.01869141 70.21268555 24.078125 69.0859375 C24.5942418 50.63202944 21.60414832 39.24566868 10.8359375 23.71142578 C7.99100347 19.50985166 5.52065534 15.1227397 3.0625 10.6875 C2.63203369 9.9459668 2.20156738 9.20443359 1.75805664 8.44042969 C0.75786198 6.67025558 -0.13253307 4.83886021 -1 3 C-0.67 2.01 -0.34 1.02 0 0 Z " fill="#1E1E1E" transform="translate(791,389)"/>
<path d="M0 0 C1.06367294 0.00222061 2.12734589 0.00444122 3.22325134 0.00672913 C5.02500572 0.00684242 5.02500572 0.00684242 6.86315918 0.00695801 C8.17042465 0.01211929 9.47769012 0.01728058 10.8245697 0.02259827 C12.16835477 0.02446253 13.51214052 0.02588639 14.85592651 0.02688599 C18.39873622 0.0307105 21.94150515 0.0405402 25.48429871 0.05158997 C29.09706572 0.06180552 32.7098393 0.06638392 36.32261658 0.07142639 C43.41573384 0.08216254 50.5088167 0.09975879 57.60191345 0.12025452 C57.60191345 5.73025452 57.60191345 11.34025452 57.60191345 17.12025452 C50.67191345 17.12025452 43.74191345 17.12025452 36.60191345 17.12025452 C36.60715027 18.90230286 36.61238708 20.6843512 36.61778259 22.520401 C36.63388087 28.39572133 36.64538603 34.2710409 36.65372562 40.14637661 C36.65895341 43.71002873 36.66604914 47.27365709 36.67735291 50.83729553 C36.69025521 54.93031549 36.69514251 59.02331031 36.6995697 63.11634827 C36.70473099 64.40173996 36.70989227 65.68713165 36.71520996 67.01147461 C36.71528549 68.19262344 36.71536102 69.37377228 36.71543884 70.5907135 C36.71765945 71.63662155 36.71988007 72.6825296 36.72216797 73.76013184 C36.60191345 76.12025452 36.60191345 76.12025452 35.60191345 77.12025452 C32.92459965 77.22006665 30.27887171 77.25905327 27.60191345 77.24525452 C26.47656189 77.2510553 26.47656189 77.2510553 25.32847595 77.25697327 C19.72852399 77.24686505 19.72852399 77.24686505 18.60191345 76.12025452 C18.50810043 74.27907422 18.48447391 72.4342781 18.48838806 70.5907135 C18.48846359 69.40956467 18.48853912 68.22841583 18.48861694 67.01147461 C18.49377823 65.72608292 18.49893951 64.44069122 18.5042572 63.11634827 C18.50567215 61.80819656 18.5070871 60.50004486 18.50854492 59.1522522 C18.51236935 55.66862593 18.52219899 52.18504112 18.5332489 48.70143127 C18.54346463 45.14898744 18.54804289 41.59653692 18.55308533 38.04408264 C18.56382133 31.0694562 18.58089686 24.09485734 18.60191345 17.12025452 C17.97099792 17.12549133 17.3400824 17.13072815 16.69004822 17.13612366 C13.84817998 17.15683278 11.00632758 17.16989518 8.16441345 17.18275452 C6.67457947 17.19532288 6.67457947 17.19532288 5.15464783 17.20814514 C4.21040955 17.2113678 3.26617126 17.21459045 2.2933197 17.21791077 C0.98149719 17.22576599 0.98149719 17.22576599 -0.35682678 17.23377991 C-2.39808655 17.12025452 -2.39808655 17.12025452 -3.39808655 16.12025452 C-3.49783687 13.60889347 -3.53690838 11.13122037 -3.52308655 8.62025452 C-3.52695374 7.91771545 -3.53082092 7.21517639 -3.5348053 6.49134827 C-3.52263824 0.17664632 -3.52263824 0.17664632 0 0 Z " fill="#1E1E1E" transform="translate(299.39808654785156,388.87974548339844)"/>
<path d="M0 0 C7.80575587 -0.02255497 15.61149407 -0.04091738 23.41727352 -0.05181217 C27.0414596 -0.05704002 30.6656223 -0.06413587 34.28979492 -0.07543945 C37.78459975 -0.08627184 41.27938204 -0.09227758 44.77420235 -0.09487724 C46.76239389 -0.09763551 48.75057631 -0.10544688 50.73875427 -0.11329651 C51.93992386 -0.11337204 53.14109344 -0.11344757 54.37866211 -0.11352539 C55.97417152 -0.11685631 55.97417152 -0.11685631 57.60191345 -0.12025452 C60 0 60 0 61 1 C61.09932392 3.31074168 61.12969618 5.62462942 61.125 7.9375 C61.12886719 9.83822266 61.12886719 9.83822266 61.1328125 11.77734375 C61 15 61 15 60 17 C53.07 17 46.14 17 39 17 C39.00523682 18.78204834 39.01047363 20.56409668 39.01586914 22.40014648 C39.03196742 28.27546682 39.04347258 34.15078638 39.05181217 40.02612209 C39.05703995 43.58977422 39.06413569 47.15340257 39.07543945 50.71704102 C39.08834176 54.81006097 39.09322906 58.9030558 39.09765625 62.99609375 C39.10281754 64.28148544 39.10797882 65.56687714 39.11329651 66.89122009 C39.11337204 68.07236893 39.11344757 69.25351776 39.11352539 70.47045898 C39.115746 71.51636703 39.11796661 72.56227509 39.12025452 73.63987732 C39 76 39 76 38 77 C35.3226862 77.09981214 32.67695825 77.13879875 30 77.125 C28.87464844 77.13080078 28.87464844 77.13080078 27.7265625 77.13671875 C22.12661053 77.12661053 22.12661053 77.12661053 21 76 C20.90618698 74.15881971 20.88256046 72.31402359 20.88647461 70.47045898 C20.88655014 69.28931015 20.88662567 68.10816132 20.88670349 66.89122009 C20.89186478 65.6058284 20.89702606 64.32043671 20.90234375 62.99609375 C20.9037587 61.68794205 20.90517365 60.37979034 20.90663147 59.03199768 C20.9104559 55.54837141 20.92028554 52.06478661 20.93133545 48.58117676 C20.94155118 45.02873292 20.94612944 41.47628241 20.95117188 37.92382812 C20.96190788 30.94919996 20.97950407 23.97460624 21 17 C14.07 17 7.14 17 0 17 C0 11.39 0 5.78 0 0 Z " fill="#1E1E1E" transform="translate(651,389)"/>
<path d="M0 0 C4.3813961 2.40322846 7.03142955 5.37542644 8.96875 9.9765625 C10.53201013 15.40889144 10.28524039 20.20742933 8.03125 25.3984375 C5.69453164 29.4917798 2.89481288 32.18803163 -1.40625 34.1484375 C-7.06616278 35.6711043 -11.95270166 35.41217455 -17.40625 33.1484375 C-21.87809069 30.05254779 -24.64659858 27.32963334 -26.40625 22.1484375 C-27.20582485 16.27501733 -26.80489054 11.08604093 -23.78125 5.91015625 C-17.94924538 -1.56209968 -8.78345218 -3.1084295 0 0 Z " fill="#1E1E1E" transform="translate(312.40625,81.8515625)"/>
<path d="M0 0 C3.29353694 2.50308807 5.6855621 4.75401497 6.2734375 8.953125 C6.46154273 13.20719718 6.43570087 16.09982354 3.6875 19.5 C0.53675771 22.43092306 -1.07216806 22.91246868 -5.3125 23.3125 C-9.68119458 22.94227165 -11.63102201 21.74219139 -15 19 C-17.69346914 14.95979629 -17.55014255 11.74289561 -17 7 C-13.56276134 -0.69286747 -7.68349153 -1.13455065 0 0 Z M-10.875 4.5625 C-13.45248068 7.51902195 -14 9.08967888 -14 13 C-12.26655125 16.72843964 -12.26655125 16.72843964 -9 19 C-4.01040252 19.47559821 -4.01040252 19.47559821 0.375 17.375 C2.39994536 14.41546447 3 12.5948199 3 9 C0.98504973 5.22196824 -0.33272434 4.20624884 -4.4375 2.9375 C-8.02351252 2.72599908 -8.02351252 2.72599908 -10.875 4.5625 Z " fill="#1E1E1E" transform="translate(902,6)"/>
<path d="M0 0 C1.65 0 3.3 0 5 0 C5.66 1.65 6.32 3.3 7 5 C7.391875 4.175 7.78375 3.35 8.1875 2.5 C8.785625 1.675 9.38375 0.85 10 0 C11.65 0 13.3 0 15 0 C15 4.95 15 9.9 15 15 C13.68 15 12.36 15 11 15 C10.67 14.01 10.34 13.02 10 12 C7.52733235 12.34444881 7.52733235 12.34444881 5 13 C4.67 13.66 4.34 14.32 4 15 C2.68 15 1.36 15 0 15 C0 10.05 0 5.1 0 0 Z " fill="#1E1E1E" transform="translate(879,389)"/>
<path d="M0 0 C6.625 -0.25 6.625 -0.25 10 2 C10.29296875 4.3828125 10.29296875 4.3828125 10.1875 7.125 C10.16042969 8.03507812 10.13335938 8.94515625 10.10546875 9.8828125 C10.07066406 10.58148438 10.03585937 11.28015625 10 12 C8.0625 11.6875 8.0625 11.6875 6 11 C5.67 10.01 5.34 9.02 5 8 C4.34 8 3.68 8 3 8 C3 9.32 3 10.64 3 12 C2.01 12 1.02 12 0 12 C0 8.04 0 4.08 0 0 Z M3 3 C3 3.99 3 4.98 3 6 C4.32 5.67 5.64 5.34 7 5 C6.67 4.34 6.34 3.68 6 3 C5.01 3 4.02 3 3 3 Z " fill="#1E1E1E" transform="translate(892,11)"/>
<path d="M0 0 C3.96 0 7.92 0 12 0 C12 0.99 12 1.98 12 3 C10.68 3 9.36 3 8 3 C8 6.96 8 10.92 8 15 C6.68 15 5.36 15 4 15 C4 11.04 4 7.08 4 3 C2.68 3 1.36 3 0 3 C0 2.01 0 1.02 0 0 Z " fill="#1E1E1E" transform="translate(866,389)"/>
</svg>
